# xmcd
#
# Track frame offsets: 
#        150
#        14053
#        34241
#        52097
#        69338
#        88631
#        108308
#        124889
#        142154
#        162330
#
# Disc length: 2440 seconds
#
# Revision: 1
# Processed by: cddbd v1.5.2PL0 Copyright (c) Steve Scherf et al.
# Submitted via: ExactAudioCopy v0.99pb5
#
DISCID=9109860a
DTITLE=陳奕迅 - H3M
DYEAR=2009
DGENRE=
TTITLE0=Allegro, Opus 3.3 a.m.
TTITLE1=還有什麼可以送給你
TTITLE2=於心有愧\
TTITLE3=今天只做一件事
TTITLE4=一個旅人
TTITLE5=七百年後
TTITLE6=Life Goes On
TTITLE7=太陽照常升起
TTITLE8=不來也不去
TTITLE9=沙龍
EXTD=
EXTT0=
EXTT1=
EXTT2=
EXTT3=
EXTT4=
EXTT5=
EXTT6=
EXTT7=
EXTT8=
EXTT9=
PLAYORDER=
